<?xml version="1.0" encoding="utf-8"?>
<!-- Generator: Adobe Illustrator 23.0.1, SVG Export Plug-In . SVG Version: 6.00 Build 0)  -->
<svg version="1.1" id="Layer_1" xmlns="http://www.w3.org/2000/svg" xmlns:xlink="http://www.w3.org/1999/xlink" x="0px" y="0px"
	 viewBox="0 0 24 24" style="enable-background:new 0 0 24 24;" xml:space="preserve">
<style type="text/css">
	.st0{fill:#4A4A4A;}
</style>
<path class="st0" d="M20,7.3h-5V6h5V7.3z M11.7,12.4c0.3,0.5,0.5,1.1,0.5,1.8c0,0.7-0.2,1.4-0.6,2c-0.2,0.4-0.5,0.7-0.9,1
	c-0.4,0.3-0.9,0.5-1.4,0.6c-0.6,0.1-1.2,0.2-1.8,0.2H2V5.5h6c1.5,0,2.6,0.5,3.2,1.3c0.4,0.5,0.6,1.2,0.6,1.9c0,0.8-0.2,1.4-0.6,1.8
	c-0.2,0.3-0.5,0.5-0.9,0.7C10.9,11.5,11.4,11.9,11.7,12.4L11.7,12.4z M4.9,10.4h2.6c0.5,0,1-0.1,1.3-0.3S9.3,9.5,9.3,9
	c0-0.6-0.2-1-0.7-1.1C8.3,7.7,7.8,7.7,7.2,7.7H4.9L4.9,10.4L4.9,10.4z M9.6,14c0-0.6-0.3-1.1-0.8-1.3c-0.3-0.1-0.7-0.2-1.2-0.2H4.9
	v3.3h2.6c0.5,0,1-0.1,1.3-0.2C9.3,15.3,9.6,14.8,9.6,14L9.6,14z M21.9,12c0.1,0.4,0.1,1,0.1,1.8h-6.5c0,0.9,0.3,1.5,0.9,1.9
	c0.4,0.2,0.8,0.3,1.3,0.3c0.5,0,1-0.1,1.3-0.4c0.2-0.1,0.3-0.4,0.5-0.6h2.4c-0.1,0.5-0.3,1.1-0.9,1.6c-0.8,0.9-1.9,1.3-3.3,1.3
	c-1.2,0-2.2-0.4-3.1-1.1c-0.9-0.7-1.4-1.9-1.4-3.6c0-1.5,0.4-2.7,1.2-3.5c0.8-0.8,1.9-1.2,3.2-1.2c0.8,0,1.5,0.1,2.1,0.4
	c0.6,0.3,1.1,0.7,1.5,1.3C21.5,10.7,21.8,11.3,21.9,12L21.9,12z M19.5,12.2c0-0.6-0.2-1.1-0.6-1.4c-0.4-0.3-0.8-0.5-1.4-0.5
	c-0.6,0-1.1,0.2-1.4,0.5c-0.3,0.3-0.5,0.8-0.6,1.4C15.5,12.2,19.5,12.2,19.5,12.2z"/>
</svg>
