<?xml version="1.0" encoding="utf-8"?>
<!-- Generator: Adobe Illustrator 23.0.1, SVG Export Plug-In . SVG Version: 6.00 Build 0)  -->
<svg version="1.1" id="Layer_1" xmlns="http://www.w3.org/2000/svg" xmlns:xlink="http://www.w3.org/1999/xlink" x="0px" y="0px"
	 viewBox="0 0 24 24" style="enable-background:new 0 0 24 24;" xml:space="preserve">
<style type="text/css">
	.st0{fill:#4A4A4A;}
</style>
<path class="st0" d="M12.5,2.3c-0.5-0.4-1.2-0.3-1.8,0L2.9,7.8C2.5,8.1,2.3,8.5,2.3,9v5.9c0,0.5,0.3,1,0.7,1.3l8,5.3
	c0.5,0.3,1.2,0.3,1.7,0l8.2-5.4c0.4-0.3,0.7-0.8,0.7-1.3V9c0-0.5-0.3-1-0.7-1.3L12.5,2.3z M18.6,8.7l-3,2l-2.8-2.1l0-4L18.6,8.7
	L18.6,8.7z M10.7,4.6v4l-2.9,2L5,8.6L10.7,4.6z M4.2,10.6L6,11.8l-1.9,1.3L4.2,10.6L4.2,10.6z M10.8,19L5,15.1l2.9-2l2.9,2L10.8,19
	L10.8,19z M9.7,11.8l1.9-1.3l2.2,1.4l-1.9,1.3L9.7,11.8z M12.8,19v-4l2.8-1.9l3,2C18.6,15.1,12.8,19,12.8,19z M19.5,13.2l-2-1.3
	l2-1.3V13.2L19.5,13.2z"/>
</svg>
