<?xml version="1.0" encoding="utf-8"?>
<!-- Generator: Adobe Illustrator 23.0.1, SVG Export Plug-In . SVG Version: 6.00 Build 0)  -->
<svg version="1.1" id="Layer_1" xmlns="http://www.w3.org/2000/svg" xmlns:xlink="http://www.w3.org/1999/xlink" x="0px" y="0px"
	 viewBox="0 0 24 24" style="enable-background:new 0 0 24 24;" xml:space="preserve">
<style type="text/css">
	.st0{fill:#4A4A4A;}
</style>
<path class="st0" d="M5.6,7l5.7,5.1c0.4,0.3,1,0.3,1.3,0L18.4,7H5.6z M20,8.3l-6,5.3c-1.1,1-2.9,1-4,0L4,8.3V17h16V8.3z M4,5h16
	c1.1,0,2,0.9,2,2v10c0,1.1-0.9,2-2,2H4c-1.1,0-2-0.9-2-2V7C2,5.9,2.9,5,4,5z"/>
</svg>
