<?xml version="1.0" encoding="utf-8"?>
<!-- Generator: Adobe Illustrator 23.0.1, SVG Export Plug-In . SVG Version: 6.00 Build 0)  -->
<svg version="1.1" id="Layer_1" xmlns="http://www.w3.org/2000/svg" xmlns:xlink="http://www.w3.org/1999/xlink" x="0px" y="0px"
	 viewBox="0 0 24 24" style="enable-background:new 0 0 24 24;" xml:space="preserve">
<style type="text/css">
	.st0{fill:#4A4A4A;}
</style>
<path class="st0" d="M20.9,3.1C20.1,2.4,19.3,2,18.2,2H5.7c-1,0-1.9,0.4-2.6,1.1S2,4.7,2,5.7v12.5c0,1,0.4,1.9,1.1,2.6
	S4.7,22,5.7,22h2.9c0.2,0,0.3,0,0.4,0c0.1,0,0.2-0.1,0.3-0.2c0.1-0.1,0.1-0.2,0.1-0.4l0-0.9c0-0.6,0-1,0-1.3l-0.3,0.1
	c-0.2,0-0.4,0-0.7,0c-0.3,0-0.6,0-0.9-0.1c-0.3-0.1-0.6-0.2-0.9-0.4c-0.3-0.2-0.5-0.5-0.6-0.8L6,17.6c-0.1-0.2-0.2-0.5-0.4-0.7
	c-0.2-0.2-0.4-0.4-0.6-0.5l-0.1-0.1c-0.1,0-0.1-0.1-0.2-0.2c0-0.1-0.1-0.1-0.1-0.2c0-0.1,0-0.1,0.1-0.1c0.1,0,0.2-0.1,0.4-0.1l0.3,0
	c0.2,0,0.4,0.1,0.6,0.3c0.3,0.2,0.5,0.4,0.6,0.7c0.2,0.4,0.4,0.6,0.7,0.8C7.6,17.9,7.9,18,8.2,18s0.5,0,0.7-0.1
	c0.2,0,0.4-0.1,0.6-0.2c0.1-0.6,0.3-1,0.6-1.3c-0.4,0-0.9-0.1-1.3-0.2C8.4,16,8,15.9,7.6,15.7c-0.4-0.2-0.8-0.5-1-0.9
	c-0.3-0.3-0.5-0.8-0.7-1.4c-0.2-0.6-0.3-1.2-0.3-2c0-1,0.3-1.9,1-2.7C6.3,8,6.4,7.1,6.7,6.1c0.3-0.1,0.6,0,1.1,0.2s0.9,0.4,1.1,0.5
	C9.2,7,9.4,7.1,9.5,7.2c0.8-0.2,1.7-0.3,2.5-0.3c0.9,0,1.7,0.1,2.5,0.3L15,6.9c0.4-0.2,0.8-0.4,1.2-0.6c0.5-0.2,0.8-0.2,1.1-0.1
	c0.4,1,0.4,1.9,0.1,2.7c0.7,0.7,1,1.6,1,2.7c0,0.7-0.1,1.4-0.3,2c-0.2,0.6-0.4,1-0.7,1.4c-0.3,0.3-0.6,0.6-1.1,0.9
	c-0.4,0.2-0.8,0.4-1.2,0.5c-0.4,0.1-0.9,0.2-1.3,0.2c0.4,0.4,0.7,1,0.7,1.8v3.1c0,0.1,0,0.3,0.1,0.4c0,0.1,0.1,0.2,0.2,0.2
	c0.1,0,0.2,0.1,0.3,0.1c0.1,0,0.2,0,0.3,0h2.9c1,0,1.9-0.4,2.6-1.1c0.7-0.7,1.1-1.6,1.1-2.6V5.7C22,4.7,21.6,3.8,20.9,3.1L20.9,3.1z
	"/>
</svg>
