<?xml version="1.0" encoding="utf-8"?>
<!-- Generator: Adobe Illustrator 23.0.1, SVG Export Plug-In . SVG Version: 6.00 Build 0)  -->
<svg version="1.1" id="Layer_1" xmlns="http://www.w3.org/2000/svg" xmlns:xlink="http://www.w3.org/1999/xlink" x="0px" y="0px"
	 viewBox="0 0 24 24" style="enable-background:new 0 0 24 24;" xml:space="preserve">
<style type="text/css">
	.st0{fill:#4A4A4A;}
</style>
<path class="st0" d="M16,2H7.9C4.7,2,2,4.7,2,7.9V16C2,19.3,4.7,22,7.9,22H16c3.3,0,5.9-2.7,5.9-5.9V7.9C22,4.7,19.3,2,16,2z M20,16
	c0,2.2-1.8,3.9-3.9,3.9h0H7.9C5.8,20,4,18.2,4,16V7.9C4,5.8,5.8,4,7.9,4H16C18.2,4,20,5.8,20,7.9V16L20,16z"/>
<path class="st0" d="M12,6.8c-2.8,0-5.2,2.3-5.2,5.2c0,2.9,2.3,5.2,5.2,5.2c2.9,0,5.2-2.3,5.2-5.2C17.1,9.1,14.8,6.8,12,6.8L12,6.8z
	 M12,15.1c-1.7,0-3.2-1.4-3.2-3.2s1.4-3.2,3.2-3.2c0,0,0,0,0,0c1.7,0,3.2,1.4,3.2,3.2C15.1,13.7,13.7,15.1,12,15.1z"/>
<circle class="st0" cx="17.2" cy="6.9" r="1.2"/>
</svg>
