<?xml version="1.0" encoding="utf-8"?>
<!-- Generator: Adobe Illustrator 23.0.1, SVG Export Plug-In . SVG Version: 6.00 Build 0)  -->
<svg version="1.1" id="Layer_1" xmlns="http://www.w3.org/2000/svg" xmlns:xlink="http://www.w3.org/1999/xlink" x="0px" y="0px"
	 viewBox="0 0 24 24" style="enable-background:new 0 0 24 24;" xml:space="preserve">
<style type="text/css">
	.st0{fill:#4A4A4A;}
</style>
<path class="st0" d="M22,13.7v7.4h-4.3v-6.9c0-1.7-0.6-2.9-2.2-2.9c-1.2,0-1.9,0.8-2.2,1.6c-0.1,0.3-0.1,0.7-0.1,1v7.2H8.9
	c0,0,0.1-11.7,0-12.9h4.3v1.8l0,0h0v0c0.6-0.9,1.6-2.1,3.9-2.1C19.8,7.9,22,9.8,22,13.7z M4.4,2C3,2,2,3,2,4.2
	c0,1.2,0.9,2.2,2.4,2.2h0c1.5,0,2.4-1,2.4-2.2C6.8,3,5.9,2,4.4,2L4.4,2z M2.3,21.1h4.3V8.2H2.3V21.1z"/>
</svg>
