<?xml version="1.0" encoding="utf-8"?>
<!-- Generator: Adobe Illustrator 23.0.1, SVG Export Plug-In . SVG Version: 6.00 Build 0)  -->
<svg version="1.1" id="Layer_1" xmlns="http://www.w3.org/2000/svg" xmlns:xlink="http://www.w3.org/1999/xlink" x="0px" y="0px"
	 viewBox="0 0 24 24" style="enable-background:new 0 0 24 24;" xml:space="preserve">
<style type="text/css">
	.st0{fill:#4A4A4A;}
</style>
<path class="st0" d="M10.7,15.1c-0.5,2.7-1.1,5.3-2.9,6.7c-0.6-4.1,0.8-7.2,1.5-10.5c-1.1-1.9,0.1-5.8,2.5-4.8
	c2.9,1.2-2.5,7.1,1.1,7.8c3.7,0.8,5.3-6.7,2.9-9.1c-3.4-3.5-9.8-0.1-9,4.9c0.2,1.2,1.4,1.6,0.5,3.3C5.1,13,4.4,11.2,4.5,8.9
	C4.7,5.1,7.8,2.4,11,2.1c4-0.5,7.8,1.5,8.4,5.4c0.6,4.4-1.8,9.2-6.1,8.9C12.1,16.3,11.6,15.7,10.7,15.1z"/>
</svg>
